<svg width="37" height="169" viewBox="0 0 37 169" fill="none" xmlns="http://www.w3.org/2000/svg">
<path id="Vector 1585" d="M0.538143 2.9431C0.431499 2.68838 0.551533 2.39544 0.806252 2.28879L4.95712 0.550887C5.21183 0.444241 5.50478 0.564276 5.61142 0.818994C5.71807 1.07371 5.59804 1.36666 5.34332 1.4733L1.65366 3.01811L3.19846 6.70776C3.30511 6.96248 3.18508 7.25543 2.93036 7.36207C2.67564 7.46872 2.3827 7.34868 2.27605 7.09397L0.538143 2.9431ZM35.166 16.75L35.3556 16.2873L36.0509 16.5722L35.5196 17.1036L35.166 16.75ZM35.166 147.712L35.5694 147.416L35.9077 147.878L35.4045 148.151L35.166 147.712ZM0.857204 166.729C0.592457 166.651 0.441479 166.373 0.519981 166.108L1.79931 161.794C1.87782 161.529 2.15608 161.378 2.42083 161.456C2.68558 161.535 2.83656 161.813 2.75805 162.078L1.62087 165.913L5.45581 167.05C5.72056 167.128 5.87154 167.407 5.79304 167.671C5.71453 167.936 5.43627 168.087 5.17152 168.009L0.857204 166.729ZM1.18893 2.28733L3.32435 3.16233L2.94519 4.08767L0.809772 3.21267L1.18893 2.28733ZM7.59518 4.91233L11.866 6.66233L11.4869 7.58767L7.21602 5.83767L7.59518 4.91233ZM16.1368 8.41233L20.4077 10.1623L20.0285 11.0877L15.7577 9.33767L16.1368 8.41233ZM24.6785 11.9123L28.9493 13.6623L28.5702 14.5877L24.2994 12.8377L24.6785 11.9123ZM33.2202 15.4123L35.3556 16.2873L34.9764 17.2127L32.841 16.3377L33.2202 15.4123ZM35.5196 17.1036C35.0165 17.6066 34.4805 18.2085 33.9185 18.9056L33.14 18.278C33.7198 17.5588 34.2795 16.9294 34.8125 16.3964L35.5196 17.1036ZM31.0697 22.9367C30.255 24.2238 29.4182 25.6566 28.5747 27.2242L27.6941 26.7503C28.5477 25.1639 29.3963 23.7106 30.2248 22.4018L31.0697 22.9367ZM26.335 31.6844C25.6628 33.1167 24.9951 34.6279 24.3397 36.2123L23.4157 35.83C24.0769 34.2315 24.7508 32.7061 25.4298 31.2595L26.335 31.6844ZM22.5362 40.8541C21.9824 42.3739 21.4439 43.9468 20.9261 45.5688L19.9734 45.2647C20.4954 43.6298 21.0382 42.0441 21.5967 40.5117L22.5362 40.8541ZM19.5094 50.3268C19.0754 51.8953 18.6631 53.5019 18.2765 55.1435L17.3031 54.9143C17.6927 53.26 18.1082 51.6409 18.5456 50.0601L19.5094 50.3268ZM17.2298 60.0074C16.9165 61.6137 16.6295 63.2484 16.3722 64.909L15.384 64.7559C15.6433 63.0823 15.9325 61.4347 16.2483 59.8159L17.2298 60.0074ZM15.7075 69.8401C15.5205 71.4706 15.3637 73.1222 15.2399 74.793L14.2427 74.7191C14.3674 73.0347 14.5256 71.3697 14.714 69.7262L15.7075 69.8401ZM14.9742 79.7597C14.9203 81.4021 14.8997 83.0602 14.9151 84.7319L13.9152 84.7412C13.8996 83.0551 13.9203 81.383 13.9747 79.7268L14.9742 79.7597ZM15.0677 89.7012C15.1536 91.343 15.2757 92.9959 15.4364 94.658L14.441 94.7542C14.2789 93.0772 14.1557 91.4097 14.069 89.7534L15.0677 89.7012ZM16.0252 99.5926C16.2568 101.22 16.5269 102.855 16.8375 104.495L15.855 104.681C15.5414 103.025 15.2689 101.376 15.0352 99.7335L16.0252 99.5926ZM17.8755 109.353C18.2561 110.951 18.677 112.553 19.14 114.157L18.1793 114.435C17.7118 112.815 17.2869 111.198 16.9027 109.585L17.8755 109.353ZM20.6309 118.896C21.1609 120.45 21.7321 122.005 22.3465 123.559L21.4165 123.927C20.7962 122.358 20.2195 120.788 19.6844 119.219L20.6309 118.896ZM24.2836 128.137C24.9595 129.633 25.6771 131.128 26.4381 132.62L25.5473 133.074C24.7791 131.568 24.0546 130.059 23.3722 128.548L24.2836 128.137ZM28.8031 136.998C29.6138 138.419 30.4657 139.835 31.3602 141.247L30.5155 141.782C29.6128 140.357 28.753 138.928 27.9346 137.494L28.8031 136.998ZM34.1104 145.377C34.5863 146.059 35.0725 146.738 35.5694 147.416L34.7627 148.007C34.2614 147.323 33.7708 146.637 33.2907 145.95L34.1104 145.377ZM35.4045 148.151L33.2691 149.31L32.7921 148.431L34.9276 147.272L35.4045 148.151ZM28.9982 151.627L24.7274 153.945L24.2505 153.066L28.5213 150.748L28.9982 151.627ZM20.4566 156.262L16.1857 158.579L15.7088 157.7L19.9796 155.383L20.4566 156.262ZM11.9149 160.896L7.64405 163.214L7.16715 162.335L11.438 160.017L11.9149 160.896ZM3.37322 165.531L1.2378 166.689L0.760899 165.811L2.89632 164.652L3.37322 165.531Z" fill="black" fill-opacity="0.48"/>
</svg>
