<svg width="36" height="169" viewBox="0 0 36 169" fill="none" xmlns="http://www.w3.org/2000/svg">
<path id="Vector 1584" d="M35.7939 2.9431C35.9005 2.68838 35.7805 2.39544 35.5258 2.28879L31.3749 0.550887C31.1202 0.444241 30.8273 0.564276 30.7206 0.818994C30.614 1.07371 30.734 1.36666 30.9887 1.4733L34.6784 3.01811L33.1336 6.70776C33.0269 6.96248 33.147 7.25543 33.4017 7.36207C33.6564 7.46872 33.9493 7.34868 34.056 7.09397L35.7939 2.9431ZM1.16602 16.75L0.976436 16.2873L0.281143 16.5722L0.812462 17.1036L1.16602 16.75ZM1.16602 147.712L0.762664 147.416L0.424298 147.878L0.927565 148.151L1.16602 147.712ZM35.4748 166.729C35.7396 166.651 35.8906 166.373 35.812 166.108L34.5327 161.794C34.4542 161.529 34.176 161.378 33.9112 161.456C33.6465 161.535 33.4955 161.813 33.574 162.078L34.7112 165.913L30.8762 167.05C30.6115 167.128 30.4605 167.407 30.539 167.671C30.6175 167.936 30.8958 168.087 31.1605 168.009L35.4748 166.729ZM35.1431 2.28733L33.0077 3.16233L33.3868 4.08767L35.5223 3.21267L35.1431 2.28733ZM28.7369 4.91233L24.466 6.66233L24.8452 7.58767L29.116 5.83767L28.7369 4.91233ZM20.1952 8.41233L15.9243 10.1623L16.3035 11.0877L20.5743 9.33767L20.1952 8.41233ZM11.6535 11.9123L7.38268 13.6623L7.76184 14.5877L12.0327 12.8377L11.6535 11.9123ZM3.11185 15.4123L0.976436 16.2873L1.3556 17.2127L3.49101 16.3377L3.11185 15.4123ZM0.812462 17.1036C1.31553 17.6066 1.85151 18.2085 2.41353 18.9056L3.19205 18.278C2.61227 17.5588 2.05255 16.9294 1.51957 16.3964L0.812462 17.1036ZM5.26229 22.9367C6.07706 24.2238 6.91384 25.6566 7.75732 27.2242L8.63793 26.7503C7.7843 25.1639 6.93571 23.7106 6.10723 22.4018L5.26229 22.9367ZM9.99698 31.6844C10.6692 33.1167 11.3369 34.6279 11.9923 36.2123L12.9163 35.83C12.2551 34.2315 11.5812 32.7061 10.9022 31.2595L9.99698 31.6844ZM13.7958 40.8541C14.3496 42.3739 14.8881 43.9468 15.406 45.5688L16.3586 45.2647C15.8367 43.6298 15.2938 42.0441 14.7354 40.5117L13.7958 40.8541ZM16.8227 50.3268C17.2566 51.8953 17.6689 53.5019 18.0555 55.1435L19.0289 54.9143C18.6393 53.26 18.2238 51.6409 17.7865 50.0601L16.8227 50.3268ZM19.1022 60.0074C19.4156 61.6137 19.7025 63.2484 19.9598 64.909L20.948 64.7559C20.6887 63.0823 20.3995 61.4347 20.0837 59.8159L19.1022 60.0074ZM20.6245 69.8401C20.8115 71.4706 20.9683 73.1222 21.0921 74.793L22.0894 74.7191C21.9646 73.0347 21.8065 71.3697 21.618 69.7262L20.6245 69.8401ZM21.3578 79.7597C21.4118 81.4021 21.4323 83.0602 21.4169 84.7319L22.4168 84.7412C22.4324 83.0551 22.4117 81.383 22.3573 79.7268L21.3578 79.7597ZM21.2644 89.7012C21.1784 91.343 21.0563 92.9959 20.8957 94.658L21.891 94.7542C22.0531 93.0772 22.1763 91.4097 22.263 89.7534L21.2644 89.7012ZM20.3068 99.5926C20.0752 101.22 19.8052 102.855 19.4945 104.495L20.477 104.681C20.7906 103.025 21.0631 101.376 21.2968 99.7335L20.3068 99.5926ZM18.4566 109.353C18.0759 110.951 17.655 112.553 17.192 114.157L18.1528 114.435C18.6202 112.815 19.0451 111.198 19.4294 109.585L18.4566 109.353ZM15.7011 118.896C15.1711 120.45 14.5999 122.005 13.9856 123.559L14.9156 123.927C15.5358 122.358 16.1125 120.788 16.6476 119.219L15.7011 118.896ZM12.0485 128.137C11.3726 129.633 10.6549 131.128 9.89393 132.62L10.7847 133.074C11.553 131.568 12.2775 130.059 12.9598 128.548L12.0485 128.137ZM7.52896 136.998C6.7182 138.419 5.86629 139.835 4.97181 141.247L5.81653 141.782C6.71924 140.357 7.57907 138.928 8.39743 137.494L7.52896 136.998ZM2.22166 145.377C1.74577 146.059 1.25949 146.738 0.762664 147.416L1.56937 148.007C2.0706 147.323 2.56122 146.637 3.04138 145.95L2.22166 145.377ZM0.927565 148.151L3.06298 149.31L3.53988 148.431L1.40447 147.272L0.927565 148.151ZM7.33381 151.627L11.6046 153.945L12.0815 153.066L7.81072 150.748L7.33381 151.627ZM15.8755 156.262L20.1463 158.579L20.6232 157.7L16.3524 155.383L15.8755 156.262ZM24.4171 160.896L28.688 163.214L29.1649 162.335L24.894 160.017L24.4171 160.896ZM32.9588 165.531L35.0942 166.689L35.5711 165.811L33.4357 164.652L32.9588 165.531Z" fill="black" fill-opacity="0.48"/>
</svg>
