<svg width="202" height="222" viewBox="0 0 202 222" fill="none" xmlns="http://www.w3.org/2000/svg">
<g id="Group 517" opacity="0.1">
<path id="Vector" d="M128.845 2.88062C129.668 4.93813 139.545 21.3983 150.244 39.9159L169.584 74.0707H212.792H256L246.947 58.4336C242.009 50.2035 232.133 33.3319 225.137 21.3983L211.969 9.15527e-05H169.584C146.129 9.15527e-05 128.022 1.2346 128.845 2.88062Z" fill="#377C8A"/>
<path id="Vector_2" d="M0 76.5415C0 81.4795 67.898 199.581 76.5396 209.457L85.5927 220.156L168.305 221.391C213.982 222.214 251.017 221.802 251.017 220.568C251.017 219.745 241.552 202.873 230.03 183.532L208.632 148.143H165.013H121.393L100.818 111.108L80.2431 74.0725H40.3273C18.1061 74.0725 0 75.307 0 76.5415Z" fill="#377C8A"/>
</g>
</svg>
