<svg width="378" height="327" viewBox="0 0 378 327" fill="none" xmlns="http://www.w3.org/2000/svg">
<g opacity="0.1">
<path d="M189.895 4.24526C191.108 7.27768 205.664 31.537 221.432 58.8288L249.937 109.167H313.618H377.299L363.956 86.1206C356.678 73.9909 342.123 49.1251 331.812 31.537L312.405 -0.0001297H249.937C215.368 -0.0001297 188.682 1.81933 189.895 4.24526Z" fill="white"/>
<path d="M0 112.807C0 120.085 100.07 294.146 112.806 308.702L126.149 324.47L248.052 326.29C315.372 327.503 369.955 326.896 369.955 325.077C369.955 323.864 356.006 298.998 339.025 270.493L307.487 218.336H243.2H178.913L148.589 163.752L118.264 109.169H59.4354C26.6853 109.169 0 110.988 0 112.807Z" fill="white"/>
</g>
</svg>
