<svg width="92" height="137" viewBox="0 0 92 137" fill="none" xmlns="http://www.w3.org/2000/svg">
<g id="Group 518" opacity="0.1">
<path id="Vector" d="M12.5777 1.77907C13.086 3.04984 19.1857 13.216 25.7937 24.6529L37.7389 45.7476H64.4249H91.111L85.5196 36.0897C82.4698 31.0067 76.3701 20.5864 72.0495 13.216L63.9166 0H37.7389C23.2521 0 12.0694 0.762459 12.5777 1.77907Z" fill="#377C8A"/>
<path id="Vector_2" d="M-67 47.2736C-67 50.3235 -25.0647 123.265 -19.7275 129.365L-14.1362 135.973L36.9486 136.736C65.1596 137.244 88.0334 136.99 88.0334 136.227C88.0334 135.719 82.1879 125.299 75.0716 113.353L61.8556 91.4963H34.9154H7.97517L-4.73249 68.6225L-17.4401 45.7487H-42.093C-55.8173 45.7487 -67 46.5112 -67 47.2736Z" fill="#377C8A"/>
</g>
</svg>
