<svg width="350" height="310" viewBox="0 0 350 310" fill="none" xmlns="http://www.w3.org/2000/svg">
<g opacity="0.1">
<path d="M180.067 4.02451C181.217 6.89998 195.019 29.9037 209.972 55.7829L237.001 103.516H297.386H357.771L345.119 81.6621C338.218 70.1602 324.415 46.5814 314.639 29.9037L296.236 -0.00114441H237.001C204.221 -0.00114441 178.917 1.72414 180.067 4.02451Z" fill="#377C8A"/>
<path d="M0 106.969C0 113.87 94.8904 278.922 106.967 292.724L119.619 307.676L235.213 309.402C299.048 310.552 350.807 309.977 350.807 308.251C350.807 307.101 337.58 283.522 321.477 256.493L291.572 207.035H230.612H169.652L140.898 155.277L112.143 103.518H56.3591C25.3041 103.518 0 105.244 0 106.969Z" fill="#377C8A"/>
</g>
</svg>
