<svg width="60" height="60" viewBox="0 0 60 60" fill="none" xmlns="http://www.w3.org/2000/svg">
<rect width="60" height="60" rx="30" fill="#377C89" fill-opacity="0.1"/>
<g clip-path="url(#clip0_40_524)">
<path d="M42.0209 17.9792C38.81 14.7683 34.5409 13 30 13C25.4591 13 21.19 14.7683 17.9791 17.9792C14.7683 21.1901 13 25.4591 13 30C13 34.5409 14.7683 38.81 17.9791 42.0208C21.19 45.2316 25.4591 47 30 47C34.5409 47 38.81 45.2317 42.0209 42.0208C45.2317 38.8099 47 34.5409 47 30C47 25.4591 45.2317 21.19 42.0209 17.9792ZM30 43.6632C22.466 43.6632 16.3368 37.5339 16.3368 30C16.3368 29.9876 16.3372 29.9754 16.3372 29.9632C16.3372 29.9601 16.3368 29.9571 16.3368 29.954C16.3368 29.9487 16.3374 29.9437 16.3376 29.9385C16.3707 22.4948 22.3863 16.4388 29.8143 16.3392C29.8299 16.3384 29.8453 16.3368 29.861 16.3368C29.8704 16.3368 29.8796 16.338 29.889 16.3382C29.926 16.338 29.9629 16.3368 30.0001 16.3368C37.5341 16.3368 43.6633 22.4661 43.6633 30.0001C43.6633 37.534 37.534 43.6632 30 43.6632Z" fill="#387C8A"/>
<path d="M40.3788 30.8189C39.8232 30.8189 39.3728 30.3685 39.3728 29.8129C39.3728 29.2574 39.8232 28.807 40.3788 28.807H41.5913C41.0218 23.2238 36.4938 18.7947 30.8672 18.3789V19.4344C30.8672 19.99 30.4168 20.4404 29.8613 20.4404C29.3057 20.4404 28.8554 19.99 28.8554 19.4344V18.4029C23.312 18.9461 18.8965 23.3902 18.3969 28.946H19.4828C20.0383 28.946 20.4887 29.3964 20.4887 29.9519C20.4887 30.5075 20.0383 30.9578 19.4828 30.9578H18.3887C18.8512 36.6031 23.3553 41.121 28.9944 41.6056V40.3304C28.9944 39.7748 29.4448 39.3244 30.0003 39.3244C30.5559 39.3244 31.0063 39.7748 31.0063 40.3304V41.6056C36.6916 41.117 41.2231 36.5287 41.6224 30.8189H40.3788ZM34.0724 27.3486L30.7117 30.7094C30.523 30.898 30.2672 31.004 30.0004 31.004C29.7336 31.004 29.4777 30.898 29.2891 30.7094L23.4392 24.8594C23.0463 24.4666 23.0463 23.8297 23.4392 23.4369C23.832 23.044 24.4689 23.044 24.8618 23.4369L30.0005 28.5755L32.6499 25.926C33.0427 25.5332 33.6796 25.5332 34.0725 25.926C34.4652 26.3188 34.4652 26.9558 34.0724 27.3486Z" fill="#387C8A"/>
</g>
<defs>
<clipPath id="clip0_40_524">
<rect width="34" height="34" fill="white" transform="translate(13 13)"/>
</clipPath>
</defs>
</svg>
