<svg width="60" height="60" viewBox="0 0 60 60" fill="none" xmlns="http://www.w3.org/2000/svg">
<rect width="60" height="60" rx="30" fill="#377C89" fill-opacity="0.1"/>
<path d="M36.1875 37.3134V34.1949C35.5014 34.1321 34.851 33.8602 34.3243 33.416C33.7976 32.9718 33.4199 32.3767 33.2422 31.7109L32.8125 32.1384V35.0634C32.8134 35.8091 33.11 36.5239 33.6372 37.0512C34.1645 37.5784 34.8794 37.875 35.625 37.8759C35.7742 37.8759 35.9173 37.8167 36.0227 37.7112C36.1282 37.6057 36.1875 37.4626 36.1875 37.3134Z" fill="#377C8A"/>
<path d="M25.5059 29.9353C25.6116 29.8823 25.7313 29.8639 25.848 29.8828C25.9648 29.9017 26.0726 29.9569 26.1562 30.0405L27.1872 31.0716V30.562C27.1864 30.1926 27.2583 29.8267 27.3989 29.4852C27.5395 29.1437 27.746 28.8332 28.0066 28.5714C28.5329 28.0428 29.2476 27.7449 29.9935 27.7433C30.7395 27.7416 31.4555 28.0364 31.9841 28.5627C32.5127 29.089 32.8106 29.8037 32.8122 30.5496L33.3213 30.0405C33.4047 29.9561 33.5127 29.9003 33.6299 29.881C33.747 29.8617 33.8672 29.8799 33.9733 29.9331C34.0795 29.9863 34.166 30.0717 34.2207 30.1771C34.2753 30.2824 34.2952 30.4024 34.2775 30.5198C34.2114 30.9871 34.2939 31.4634 34.5133 31.8813C34.7328 32.2991 35.0781 32.6374 35.5004 32.8482C35.9227 33.059 36.4006 33.1317 36.8665 33.0559C37.3323 32.9802 37.7626 32.7598 38.0963 32.4261C38.4301 32.0923 38.6504 31.6621 38.7262 31.1962C38.8019 30.7303 38.7292 30.2525 38.5184 29.8302C38.3076 29.4079 37.9694 29.0626 37.5515 28.8431C37.1337 28.6236 36.6574 28.5411 36.19 28.6073C36.0727 28.625 35.9527 28.6051 35.8473 28.5504C35.7419 28.4958 35.6565 28.4092 35.6034 28.3031C35.5502 28.197 35.5319 28.0767 35.5512 27.9596C35.5705 27.8425 35.6264 27.7345 35.7108 27.651L39.29 24.0662L36.7688 21.5457C36.5362 22.0329 36.19 22.4572 35.7593 22.7829C35.3287 23.1086 34.8262 23.3262 34.2941 23.4175C33.7619 23.5089 33.2156 23.4711 32.701 23.3076C32.1865 23.144 31.7187 22.8594 31.3369 22.4776C30.9551 22.0958 30.6705 21.628 30.5069 21.1135C30.3434 20.5989 30.3056 20.0526 30.397 19.5204C30.4883 18.9883 30.7059 18.4858 31.0316 18.0552C31.3573 17.6245 31.7816 17.2783 32.2688 17.0457L29.741 14.5273L26.1562 18.1065C26.0727 18.1909 25.9647 18.2468 25.8476 18.2661C25.7304 18.2854 25.6102 18.2671 25.5041 18.214C25.398 18.1608 25.3114 18.0754 25.2568 17.97C25.2021 17.8646 25.1822 17.7447 25.1999 17.6273C25.249 17.2822 25.2172 16.9304 25.1071 16.5997C24.997 16.269 24.8116 15.9683 24.5654 15.7215C24.1366 15.313 23.567 15.0851 22.9747 15.0851C22.3824 15.0851 21.8128 15.313 21.3839 15.7215C21.0513 16.0556 20.8321 16.4857 20.7571 16.9511C20.6822 17.4165 20.7553 17.8936 20.9661 18.3153C21.1769 18.7369 21.5149 19.0816 21.9322 19.3008C22.3495 19.52 22.8251 19.6026 23.2919 19.537C23.4093 19.5193 23.5292 19.5392 23.6346 19.5938C23.74 19.6485 23.8254 19.735 23.8786 19.8412C23.9318 19.9473 23.95 20.0675 23.9307 20.1846C23.9114 20.3018 23.8556 20.4098 23.7712 20.4932L20.1914 24.0707L23.7717 27.6555C23.8562 27.739 23.9121 27.8471 23.9314 27.9643C23.9507 28.0815 23.9324 28.2018 23.8791 28.3079C23.8259 28.4141 23.7404 28.5007 23.6349 28.5552C23.5294 28.6098 23.4093 28.6296 23.2919 28.6118C22.8246 28.5456 22.3483 28.6281 21.9304 28.8476C21.5126 29.0671 21.1743 29.4124 20.9635 29.8347C20.7527 30.257 20.68 30.7348 20.7558 31.2007C20.8315 31.6666 21.0519 32.0968 21.3856 32.4306C21.7194 32.7643 22.1496 32.9847 22.6155 33.0604C23.0813 33.1362 23.5592 33.0635 23.9815 32.8527C24.4038 32.6419 24.7491 32.3036 24.9686 31.8858C25.1881 31.4679 25.2705 30.9916 25.2044 30.5243C25.186 30.4068 25.2052 30.2866 25.2594 30.1808C25.3136 30.075 25.3999 29.9891 25.5059 29.9353Z" fill="#377C8A"/>
<path d="M31.8648 44.6987L32.4273 43.5737C32.6995 43.0267 32.8411 42.424 32.8411 41.8131C32.8411 41.2021 32.6995 40.5994 32.4273 40.0524L32.2214 39.6396C31.8709 38.9361 31.688 38.1609 31.687 37.3749V30.5625C31.687 30.1149 31.5093 29.6857 31.1928 29.3693C30.8763 29.0528 30.4471 28.875 29.9995 28.875C29.552 28.875 29.1228 29.0528 28.8063 29.3693C28.4898 29.6857 28.312 30.1149 28.312 30.5625V38.4375C28.312 38.5867 28.2528 38.7298 28.1473 38.8352C28.0418 38.9407 27.8987 39 27.7495 39C27.6004 39 27.4573 38.9407 27.3518 38.8352C27.2463 38.7298 27.187 38.5867 27.187 38.4375V32.6629L26.2342 31.7106C26.0424 32.4278 25.6191 33.0615 25.03 33.5134C24.441 33.9652 23.7191 34.2098 22.9767 34.2092C22.9171 34.2092 22.8592 34.2036 22.8001 34.2007L21.4242 38.1607C21.3107 38.4038 21.2559 38.6702 21.2645 38.9384C21.2731 39.2066 21.3448 39.4689 21.4737 39.7042C21.4839 39.7224 21.4929 39.7412 21.5007 39.7605L23.4745 44.4315C23.6955 44.844 23.8114 45.3046 23.812 45.7725V46.3125H31.687V45.453C31.6873 45.1912 31.7481 44.933 31.8648 44.6987Z" fill="#377C8A"/>
<path d="M46.3125 24.9375H42.9375C42.7883 24.9375 42.6452 24.8782 42.5398 24.7727C42.4343 24.6673 42.375 24.5242 42.375 24.375C42.375 24.2258 42.4343 24.0827 42.5398 23.9773C42.6452 23.8718 42.7883 23.8125 42.9375 23.8125H46.3125C46.4617 23.8125 46.6048 23.8718 46.7102 23.9773C46.8157 24.0827 46.875 24.2258 46.875 24.375C46.875 24.5242 46.8157 24.6673 46.7102 24.7727C46.6048 24.8782 46.4617 24.9375 46.3125 24.9375Z" fill="#377C8A"/>
<path d="M42.3301 18.4669C42.2062 18.4669 42.0859 18.426 41.9876 18.3506C41.8894 18.2753 41.8188 18.1696 41.7867 18.05C41.7547 17.9304 41.763 17.8035 41.8104 17.6891C41.8578 17.5747 41.9416 17.4792 42.0488 17.4173L44.9738 15.7298C45.1029 15.6563 45.2559 15.637 45.3992 15.6759C45.5426 15.7148 45.6647 15.8089 45.739 15.9375C45.8132 16.0661 45.8336 16.2189 45.7956 16.3625C45.7577 16.5061 45.6644 16.6289 45.5363 16.704L42.6113 18.3915C42.5259 18.4411 42.4288 18.4671 42.3301 18.4669Z" fill="#377C8A"/>
<path d="M45.2524 33.0917C45.1537 33.0919 45.0566 33.0659 44.9712 33.0163L42.0462 31.3288C41.9817 31.2922 41.9251 31.2431 41.8797 31.1845C41.8342 31.1259 41.8008 31.0588 41.7814 30.9872C41.7619 30.9156 41.7568 30.8409 41.7664 30.7673C41.776 30.6938 41.8 30.6228 41.8371 30.5586C41.8742 30.4943 41.9236 30.4381 41.9825 30.393C42.0415 30.3479 42.1087 30.315 42.1804 30.296C42.2522 30.2771 42.3269 30.2725 42.4004 30.2825C42.4739 30.2926 42.5447 30.3171 42.6087 30.3546L45.5337 32.0421C45.6409 32.104 45.7247 32.1996 45.7721 32.314C45.8195 32.4284 45.8278 32.5552 45.7958 32.6748C45.7637 32.7944 45.6931 32.9001 45.5949 32.9755C45.4966 33.0508 45.3763 33.0917 45.2524 33.0917Z" fill="#377C8A"/>
<path d="M17.0625 24.9375H13.6875C13.5383 24.9375 13.3952 24.8782 13.2898 24.7727C13.1843 24.6673 13.125 24.5242 13.125 24.375C13.125 24.2258 13.1843 24.0827 13.2898 23.9773C13.3952 23.8718 13.5383 23.8125 13.6875 23.8125H17.0625C17.2117 23.8125 17.3548 23.8718 17.4602 23.9773C17.5657 24.0827 17.625 24.2258 17.625 24.375C17.625 24.5242 17.5657 24.6673 17.4602 24.7727C17.3548 24.8782 17.2117 24.9375 17.0625 24.9375Z" fill="#377C8A"/>
<path d="M17.6698 18.4669C17.571 18.4671 17.474 18.4411 17.3886 18.3915L14.4636 16.704C14.3354 16.6289 14.2422 16.5061 14.2042 16.3625C14.1663 16.2189 14.1866 16.0661 14.2609 15.9375C14.3352 15.8089 14.4573 15.7148 14.6007 15.6759C14.744 15.637 14.8969 15.6563 15.0261 15.7298L17.9511 17.4173C18.0583 17.4792 18.1421 17.5747 18.1895 17.6891C18.2369 17.8035 18.2452 17.9304 18.2131 18.05C18.1811 18.1696 18.1105 18.2753 18.0122 18.3506C17.914 18.426 17.7936 18.4669 17.6698 18.4669Z" fill="#377C8A"/>
<path d="M14.748 33.0917C14.6242 33.0917 14.5038 33.0508 14.4056 32.9755C14.3074 32.9001 14.2368 32.7944 14.2047 32.6748C14.1727 32.5552 14.181 32.4284 14.2284 32.314C14.2757 32.1996 14.3595 32.104 14.4668 32.0421L17.3918 30.3546C17.4558 30.3171 17.5266 30.2926 17.6001 30.2825C17.6736 30.2725 17.7483 30.2771 17.82 30.296C17.8917 30.315 17.959 30.3479 18.0179 30.393C18.0769 30.4381 18.1263 30.4943 18.1634 30.5586C18.2005 30.6228 18.2245 30.6938 18.2341 30.7673C18.2436 30.8409 18.2385 30.9156 18.2191 30.9872C18.1997 31.0588 18.1663 31.1259 18.1208 31.1845C18.0754 31.2431 18.0188 31.2922 17.9543 31.3288L15.0293 33.0163C14.9438 33.0659 14.8468 33.0919 14.748 33.0917Z" fill="#377C8A"/>
</svg>
