<svg width="60" height="60" viewBox="0 0 60 60" fill="none" xmlns="http://www.w3.org/2000/svg">
<rect width="60" height="60" rx="30" fill="#377C89" fill-opacity="0.1"/>
<path fill-rule="evenodd" clip-rule="evenodd" d="M45.1109 24.6094H14.8887V40.7972C14.8912 41.9411 15.3467 43.0375 16.1556 43.8463C16.9645 44.6552 18.0608 45.1108 19.2048 45.1133H40.7948C41.9387 45.1108 43.0351 44.6552 43.844 43.8463C44.6529 43.0375 45.1084 41.9411 45.1109 40.7972V24.6094ZM22.4442 41.3355C22.2286 41.3374 22.0173 41.275 21.8373 41.1564C21.6572 41.0378 21.5166 40.8682 21.4332 40.6694C21.3498 40.4705 21.3275 40.2514 21.3691 40.0398C21.4107 39.8283 21.5144 39.6339 21.6668 39.4814C21.8193 39.329 22.0137 39.2253 22.2252 39.1837C22.4368 39.1421 22.656 39.1644 22.8548 39.2478C23.0536 39.3312 23.2232 39.4718 23.3418 39.6519C23.4604 39.8319 23.5228 40.0432 23.5209 40.2588C23.5209 40.5444 23.4075 40.8182 23.2055 41.0201C23.0036 41.2221 22.7298 41.3355 22.4442 41.3355ZM22.4442 35.9427C22.229 35.9446 22.0181 35.8825 21.8383 35.7643C21.6584 35.6461 21.5177 35.4771 21.4341 35.2788C21.3504 35.0805 21.3276 34.8619 21.3684 34.6506C21.4092 34.4393 21.5119 34.2448 21.6634 34.092C21.815 33.9392 22.0085 33.8348 22.2194 33.7921C22.4303 33.7494 22.6492 33.7704 22.8482 33.8523C23.0472 33.9342 23.2174 34.0734 23.3372 34.2522C23.4569 34.431 23.5209 34.6414 23.5209 34.8566C23.5221 34.9992 23.4953 35.1407 23.4418 35.273C23.3884 35.4052 23.3094 35.5256 23.2095 35.6274C23.1095 35.7291 22.9905 35.8101 22.8592 35.8659C22.7279 35.9216 22.5869 35.9509 22.4442 35.9522V35.9427ZM22.4442 30.5405C22.2313 30.5405 22.0231 30.4773 21.8461 30.359C21.669 30.2407 21.531 30.0726 21.4495 29.8758C21.368 29.6791 21.3467 29.4626 21.3882 29.2538C21.4298 29.0449 21.5323 28.8531 21.6829 28.7025C21.8335 28.5519 22.0253 28.4494 22.2342 28.4078C22.443 28.3663 22.6595 28.3876 22.8563 28.4691C23.053 28.5506 23.2211 28.6886 23.3394 28.8657C23.4577 29.0427 23.5209 29.2509 23.5209 29.4638C23.5221 29.606 23.4952 29.747 23.4417 29.8787C23.3881 30.0105 23.309 30.1303 23.2089 30.2313C23.1088 30.3322 22.9897 30.4124 22.8584 30.4671C22.7272 30.5218 22.5864 30.5499 22.4442 30.5499V30.5405ZM35.3926 41.3355H26.7603C26.491 41.3103 26.2407 41.1855 26.0585 40.9855C25.8764 40.7854 25.7754 40.5246 25.7754 40.2541C25.7754 39.9836 25.8764 39.7228 26.0585 39.5227C26.2407 39.3227 26.491 39.1979 26.7603 39.1727H35.3926C35.5431 39.1586 35.6948 39.1761 35.8382 39.2241C35.9816 39.272 36.1133 39.3493 36.2251 39.4511C36.3368 39.5529 36.4261 39.6769 36.4872 39.8152C36.5483 39.9534 36.5798 40.1029 36.5798 40.2541C36.5798 40.4053 36.5483 40.5548 36.4872 40.693C36.4261 40.8313 36.3368 40.9553 36.2251 41.0571C36.1133 41.1589 35.9816 41.2362 35.8382 41.2841C35.6948 41.3321 35.5431 41.3496 35.3926 41.3355ZM25.6837 34.866C25.6824 34.7239 25.7094 34.5828 25.7629 34.4511C25.8165 34.3194 25.8956 34.1996 25.9957 34.0986C26.0958 33.9976 26.2149 33.9175 26.3461 33.8628C26.4774 33.8081 26.6182 33.7799 26.7603 33.7799H33.2392C33.5086 33.8051 33.7589 33.93 33.941 34.13C34.1232 34.33 34.2242 34.5908 34.2242 34.8613C34.2242 35.1319 34.1232 35.3927 33.941 35.5927C33.7589 35.7927 33.5086 35.9175 33.2392 35.9427H26.7603C26.4756 35.9402 26.2031 35.826 26.0017 35.6246C25.8004 35.4233 25.6861 35.1508 25.6837 34.866ZM37.5553 30.5499H26.7603C26.4748 30.5499 26.2009 30.4365 25.999 30.2346C25.7971 30.0327 25.6837 29.7588 25.6837 29.4733C25.6837 29.1877 25.7971 28.9139 25.999 28.7119C26.2009 28.51 26.4748 28.3966 26.7603 28.3966H37.5553C37.8409 28.3966 38.1147 28.51 38.3167 28.7119C38.5186 28.9139 38.632 29.1877 38.632 29.4733C38.632 29.7588 38.5186 30.0327 38.3167 30.2346C38.1147 30.4365 37.8409 30.5499 37.5553 30.5499Z" fill="#377C8A"/>
<path fill-rule="evenodd" clip-rule="evenodd" d="M45.1109 22.4462V19.2067C45.1084 18.0628 44.6529 16.9664 43.844 16.1575C43.0351 15.3487 41.9387 14.8931 40.7948 14.8906H19.2048C18.0608 14.8931 16.9645 15.3487 16.1556 16.1575C15.3467 16.9664 14.8912 18.0628 14.8887 19.2067V22.4462H45.1109ZM39.7181 18.1301C39.9307 18.1319 40.1379 18.1967 40.3137 18.3161C40.4895 18.4355 40.626 18.6043 40.7061 18.8012C40.7861 18.9981 40.8061 19.2143 40.7635 19.4225C40.7209 19.6307 40.6176 19.8217 40.4667 19.9713C40.3157 20.121 40.1239 20.2226 39.9153 20.2634C39.7067 20.3041 39.4907 20.2823 39.2945 20.2005C39.0983 20.1188 38.9307 19.9808 38.8128 19.8039C38.6949 19.6271 38.632 19.4193 38.632 19.2067C38.632 19.0645 38.6602 18.9238 38.7149 18.7925C38.7696 18.6613 38.8497 18.5422 38.9507 18.4421C39.0517 18.342 39.1715 18.2628 39.3032 18.2093C39.4349 18.1558 39.5759 18.1288 39.7181 18.1301ZM35.3926 18.1301C35.6055 18.1301 35.8137 18.1932 35.9907 18.3115C36.1678 18.4298 36.3058 18.598 36.3873 18.7947C36.4688 18.9914 36.4901 19.2079 36.4485 19.4168C36.407 19.6256 36.3045 19.8175 36.1539 19.9681C36.0033 20.1186 35.8115 20.2212 35.6026 20.2627C35.3938 20.3043 35.1773 20.2829 34.9805 20.2014C34.7838 20.12 34.6157 19.982 34.4973 19.8049C34.379 19.6278 34.3159 19.4197 34.3159 19.2067C34.3159 18.9212 34.4293 18.6473 34.6312 18.4454C34.8332 18.2435 35.107 18.1301 35.3926 18.1301ZM20.2814 18.1301H24.607C24.8926 18.1301 25.1664 18.2435 25.3683 18.4454C25.5702 18.6473 25.6837 18.9212 25.6837 19.2067C25.6837 19.4923 25.5702 19.7661 25.3683 19.9681C25.1664 20.17 24.8926 20.2834 24.607 20.2834H20.2814C19.9959 20.2834 19.722 20.17 19.5201 19.9681C19.3182 19.7661 19.2048 19.4923 19.2048 19.2067C19.2048 18.9212 19.3182 18.6473 19.5201 18.4454C19.722 18.2435 19.9959 18.1301 20.2814 18.1301Z" fill="#377C8A"/>
</svg>
