<svg width="60" height="60" viewBox="0 0 60 60" fill="none" xmlns="http://www.w3.org/2000/svg">
<rect width="60" height="60" rx="30" fill="#377C89" fill-opacity="0.1"/>
<g clip-path="url(#clip0_40_537)">
<path d="M20.4795 28.4746V24.0547H19.8286C17.1661 24.0547 15 26.2208 15 28.8833V43.3389C15 43.7062 15.2213 44.0373 15.5607 44.1779C15.673 44.2245 15.791 44.2471 15.908 44.2471C16.1444 44.2471 16.3767 44.1549 16.5504 43.981L19.9324 40.5991H33.8755C36.538 40.5991 38.7041 38.4331 38.7041 35.7705V35.1196H27.1245C23.4604 35.1196 20.4795 32.1387 20.4795 28.4746Z" fill="#377C8A"/>
<path d="M41.1724 16.7578H27.1255C24.463 16.7578 22.2969 18.9239 22.2969 21.5864V28.4736C22.2969 31.1362 24.463 33.3022 27.1255 33.3022H41.0686L44.4506 36.6842C44.6243 36.8579 44.8566 36.9503 45.0929 36.9502C45.2099 36.9502 45.3279 36.9276 45.4403 36.8811C45.7796 36.7405 46.0009 36.4093 46.0009 36.042V21.5864C46.001 18.9239 43.8349 16.7578 41.1724 16.7578ZM28.677 25.8701C28.1679 25.8701 27.7908 25.454 27.7688 24.9619C27.7468 24.4714 28.202 24.0537 28.677 24.0537C29.1861 24.0537 29.5632 24.4698 29.5852 24.9619C29.6072 25.4524 29.1521 25.8701 28.677 25.8701ZM34.1489 25.8701C33.6398 25.8701 33.2628 25.454 33.2407 24.9619C33.2187 24.4714 33.6739 24.0537 34.1489 24.0537C34.6581 24.0537 35.0351 24.4698 35.0571 24.9619C35.0791 25.4524 34.624 25.8701 34.1489 25.8701ZM39.6208 25.8701C39.1117 25.8701 38.7347 25.454 38.7126 24.9619C38.6907 24.4714 39.1458 24.0537 39.6208 24.0537C40.13 24.0537 40.507 24.4698 40.5291 24.9619C40.551 25.4524 40.0959 25.8701 39.6208 25.8701Z" fill="#377C8A"/>
</g>
<defs>
<clipPath id="clip0_40_537">
<rect width="31" height="31" fill="white" transform="translate(15 15)"/>
</clipPath>
</defs>
</svg>
