<svg width="153" height="75" viewBox="0 0 153 75" fill="none" xmlns="http://www.w3.org/2000/svg">
<g id="Group 8">
<path id="Vector" d="M135.42 0.398193C135.533 0.682681 136.899 2.95858 138.378 5.51897L141.052 10.2415H147.027H153.001L151.749 8.07935C151.066 6.9414 149.701 4.60861 148.734 2.95858L146.913 -8.86917e-05H141.052C137.809 -8.86917e-05 135.306 0.170604 135.42 0.398193Z" fill="#377C8A"/>
<path id="Vector_2" d="M117.605 10.5812C117.605 11.264 126.994 27.5936 128.188 28.9591L129.44 30.4384L140.877 30.6091C147.192 30.7229 152.313 30.666 152.313 30.4953C152.313 30.3815 151.004 28.0487 149.411 25.3746L146.452 20.4814H140.421H134.39L131.545 15.3606L128.7 10.2398H123.181C120.109 10.2398 117.605 10.4105 117.605 10.5812Z" fill="#377C8A"/>
<path id="Vector_3" d="M9.44498 20.9941C3.81213 23.2131 0.967257 26.7976 0.967257 31.6339C0.967257 38.7461 3.47075 41.022 14.6226 44.3221C22.4745 46.598 24.1814 48.5325 21.1659 51.4911C20.0848 52.6291 19.2313 52.9136 16.8985 52.9136C14.3951 52.9136 13.7123 52.6291 12.2899 51.2635C11.3795 50.3532 10.6398 49.1583 10.6398 48.7032C10.6398 47.9635 9.78636 47.7928 5.29146 47.7928H0L0.398282 49.898C1.25174 54.7343 5.12077 58.9447 10.1846 60.6516C13.4847 61.7327 19.971 61.8465 22.9866 60.8223C25.547 60.0258 28.7332 58.0912 30.0988 56.4981C32.8867 53.4257 33.6833 47.11 31.7488 43.3548C29.7005 39.3151 27.0263 37.6651 19.6865 35.8443C12.9726 34.1943 11.8347 33.6253 11.3795 31.9753C10.6398 29.0166 13.5985 27.4804 17.8089 28.5046C19.6296 28.9597 20.4262 29.5856 21.2228 31.0649L22.3038 32.9995H27.2539C32.716 32.9995 32.8298 32.8857 31.635 29.7563C30.6677 27.0821 28.2211 24.0097 26.2297 22.8148C21.3365 19.913 14.1675 19.1165 9.44498 20.9941Z" fill="#377C8A"/>
<path id="Vector_4" d="M90.5783 20.6544C84.7748 22.5889 80.8488 25.7751 77.8333 30.8959L76.297 33.5701L74.9315 30.6683C72.1435 24.4665 66.7383 20.9388 59.3985 20.5975C54.4484 20.313 50.9208 21.0526 46.9379 23.044L44.2638 24.4096L42.8413 22.7027C41.5896 21.2233 41.0775 21.0526 38.2895 21.0526H35.1033V47.7944V74.5363H40.793H46.4828V66.5706C46.4828 62.1895 46.5966 58.605 46.7104 58.605C46.8241 58.605 47.8483 59.0032 49.0432 59.5153C59.0571 63.6688 70.9487 59.6291 75.0453 50.5824L76.297 47.7944L77.8902 50.7531C83.2385 60.7671 96.3249 64.6361 106.168 59.117C107.818 58.1498 109.241 57.467 109.354 57.5808C109.411 57.6946 109.81 58.3205 110.151 59.0032C110.72 60.1412 111.232 60.3119 114.475 60.3119H118.174V40.6823V21.0526H114.475C112.427 21.0526 110.777 21.2802 110.777 21.5078C110.777 21.7923 110.436 22.4182 110.037 23.044C109.298 24.0113 109.07 23.9544 105.429 22.1906C102.299 20.6544 100.82 20.2561 97.2353 20.0854C94.618 19.9716 91.9438 20.1992 90.5783 20.6544ZM59.1709 30.2131C61.6744 30.8959 64.9744 33.5701 66.1693 36.0167C67.7055 38.8615 67.3641 43.4133 65.4865 46.5427C60.4226 54.7928 47.9052 52.9152 45.4017 43.4702C43.9793 38.1219 47.1086 32.3752 52.5139 30.4407C55.245 29.4735 56.3829 29.4166 59.1709 30.2131ZM100.194 30.2131C101.389 30.5545 103.38 31.7494 104.632 32.9442C111.858 39.6581 107.022 51.7773 97.1215 51.7773C89.8955 51.7773 84.4334 44.8927 86.2541 38.1788C87.1076 35.1063 90.4076 31.5218 93.4232 30.4407C96.2111 29.4735 97.3491 29.4166 100.194 30.2131Z" fill="#377C8A"/>
</g>
</svg>
