<svg width="57" height="57" viewBox="0 0 57 57" fill="none" xmlns="http://www.w3.org/2000/svg">
<path d="M5.34377 28.5032L5.34375 28.4946C5.34303 28.1972 5.41928 27.9046 5.56509 27.6454L4.01263 26.7721L5.5651 27.6454C5.7109 27.3862 5.92131 27.1692 6.17588 27.0154L6.18422 27.0103L38.2645 7.38537L38.2652 7.38496C38.5356 7.21936 38.8454 7.12896 39.1624 7.12309C39.4795 7.11722 39.7923 7.19609 40.0687 7.35157L40.0727 7.35382C40.3441 7.50554 40.5701 7.72677 40.7276 7.99479C40.8849 8.2625 40.9681 8.56723 40.9688 8.87772L40.9688 48.1201C40.9681 48.4306 40.8849 48.7353 40.7276 49.003C40.5701 49.271 40.3441 49.4923 40.0727 49.644L40.0727 49.644L40.0687 49.6462C39.7923 49.8017 39.4795 49.8806 39.1624 49.8747C38.8454 49.8688 38.5356 49.7784 38.2652 49.6128L38.2645 49.6124L6.18424 29.9875L6.17587 29.9824C5.92131 29.8286 5.7109 29.6116 5.5651 29.3524L4.01263 30.2257L5.56509 29.3523C5.41928 29.0931 5.34303 28.8006 5.34377 28.5032Z" stroke="white" stroke-width="3.5625"/>
</svg>
